HIERARCHY
ROOT Hips
{
	OFFSET 0.000000 0.000000 0.000000
	CHANNELS 6 Xposition Yposition Zposition Xrotation Yrotation Zrotation
	JOINT LeftUpLeg_virtual
	{
		OFFSET 0.000000 0.000000 0.000000
		CHANNELS 3 Xrotation Yrotation Zrotation
		JOINT LeftUpLeg
		{
			OFFSET 13.026900 -6.336304 -1.092800
			CHANNELS 3 Xrotation Yrotation Zrotation
			JOINT LeftLeg
			{
				OFFSET 0.524474 -46.096886 9.782700
				CHANNELS 3 Xrotation Yrotation Zrotation
				JOINT LeftFoot
				{
					OFFSET -0.524474 -53.427422 -12.948200
					CHANNELS 3 Xrotation Yrotation Zrotation
					JOINT LeftToeBase
					{
						OFFSET 0.192200 -14.009700 16.364100
						CHANNELS 3 Xrotation Yrotation Zrotation
						JOINT LeftToe_End
						{
							OFFSET -1.784700 -0.561700 9.474800
							CHANNELS 3 Xrotation Yrotation Zrotation
							End Site
							{
								OFFSET 0 0 0
							}
						}
					}
				}
			}
		}
	}
	JOINT RightUpLeg_virtual
	{
		OFFSET 0.000000 0.000000 0.000000
		CHANNELS 3 Xrotation Yrotation Zrotation
		JOINT RightUpLeg
		{
			OFFSET -12.883000 -6.336304 -1.092800
			CHANNELS 3 Xrotation Yrotation Zrotation
			JOINT RightLeg
			{
				OFFSET -0.524587 -46.096825 9.782800
				CHANNELS 3 Xrotation Yrotation Zrotation
				JOINT RightFoot
				{
					OFFSET 0.524587 -53.427383 -12.948300
					CHANNELS 3 Xrotation Yrotation Zrotation
					JOINT RightToeBase
					{
						OFFSET -0.192200 -14.009700 16.364100
						CHANNELS 3 Xrotation Yrotation Zrotation
						JOINT RightToe_End
						{
							OFFSET 1.784700 -0.561700 9.474800
							CHANNELS 3 Xrotation Yrotation Zrotation
							End Site
							{
								OFFSET 0 0 0
							}
						}
					}
				}
			}
		}
	}
	JOINT Spine_virtual
	{
		OFFSET 0.000000 0.000000 0.000000
		CHANNELS 3 Xrotation Yrotation Zrotation
		JOINT Spine
		{
			OFFSET 0.072000 7.257294 -0.789700
			CHANNELS 3 Xrotation Yrotation Zrotation
			JOINT Spine1
			{
				OFFSET 0.000000 12.508769 -0.658067
				CHANNELS 3 Xrotation Yrotation Zrotation
				JOINT Spine1_split
				{
					OFFSET 0.000000 12.508769 -0.658067
					CHANNELS 3 Xrotation Yrotation Zrotation
					JOINT Spine2
					{
						OFFSET 0.000000 12.508769 -0.658067
						CHANNELS 3 Xrotation Yrotation Zrotation
						JOINT Neck_virtual
						{
							OFFSET 0.000000 0.000000 0.000000
							CHANNELS 3 Xrotation Yrotation Zrotation
							JOINT Neck
							{
								OFFSET 0.000000 14.033295 7.520400
								CHANNELS 3 Xrotation Yrotation Zrotation
								JOINT Head
								{
									OFFSET 0.000000 8.198502 5.703100
									CHANNELS 3 Xrotation Yrotation Zrotation
									JOINT HeadTop_End
									{
										OFFSET 0.000000 17.760803 13.332701
										CHANNELS 3 Xrotation Yrotation Zrotation
										End Site
										{
											OFFSET 0 0 0
										}
									}
								}
							}
						}
						JOINT LeftShoulder_virtual
						{
							OFFSET 0.000000 0.000000 0.000000
							CHANNELS 3 Xrotation Yrotation Zrotation
							JOINT LeftShoulder
							{
								OFFSET 6.292450 5.785301 -0.669000
								CHANNELS 3 Xrotation Yrotation Zrotation
								JOINT LeftShoulder_split
								{
									OFFSET 6.292450 5.785301 -0.669000
									CHANNELS 3 Xrotation Yrotation Zrotation
									JOINT LeftArm
									{
										OFFSET 13.907140 -6.093903 1.965100
										CHANNELS 3 Xrotation Yrotation Zrotation
										JOINT LeftForeArm
										{
											OFFSET 34.140198 0.000000 0.000000
											CHANNELS 3 Xrotation Yrotation Zrotation
											JOINT LeftHand
											{
												OFFSET 40.960209 0.000000 0.000000
												CHANNELS 3 Xrotation Yrotation Zrotation
												End Site
												{
													OFFSET 0 0 0
												}
											}
										}
									}
								}
							}
						}
						JOINT RightShoulder_virtual
						{
							OFFSET 0.000000 0.000000 0.000000
							CHANNELS 3 Xrotation Yrotation Zrotation
							JOINT RightShoulder
							{
								OFFSET -6.292450 5.785301 -0.669000
								CHANNELS 3 Xrotation Yrotation Zrotation
								JOINT RightShoulder_split
								{
									OFFSET -6.292450 5.785301 -0.669000
									CHANNELS 3 Xrotation Yrotation Zrotation
									JOINT RightArm
									{
										OFFSET -13.907140 -6.093903 1.965100
										CHANNELS 3 Xrotation Yrotation Zrotation
										JOINT RightForeArm
										{
											OFFSET -34.140198 0.000000 0.000000
											CHANNELS 3 Xrotation Yrotation Zrotation
											JOINT RightHand
											{
												OFFSET -40.960209 0.000000 0.000000
												CHANNELS 3 Xrotation Yrotation Zrotation
												End Site
												{
													OFFSET 0 0 0
												}
											}
										}
									}
								}
							}
						}
					}
				}
			}
		}
	}
}
MOTION
Frames: 10
Frame Time: 0.03333333
-1.820902 152.742706 21.787575 0.000000 0.000000 0.000000 8.210527 -40.379511 5.700365 -81.870343 -18.620491 19.637849 78.464564 -2.530160 -0.963266 10.287082 5.233899 -3.410028 -11.554967 1.930631 -0.976136 0.000000 0.000000 0.000000 7.754923 -35.883109 4.904374 -114.368444 -47.549031 6.658519 114.295996 -5.435507 -26.678756 45.316871 8.411315 26.685313 9.012214 2.995010 -4.960124 0.000000 0.000000 0.000000 4.649968 -41.483734 2.200709 30.839728 -7.779556 -6.364410 11.183398 1.118902 -3.275905 0.119323 1.441336 1.048923 0.000000 0.000000 0.000000 11.176941 0.889615 -2.320039 -6.439605 18.606993 -15.827551 -27.743329 11.352378 2.708080 0.000000 0.000000 0.000000 12.876997 1.478768 -2.914437 12.087919 -12.201283 -1.300499 1.101176 -3.700829 -4.530361 -54.063611 4.825532 1.096232 47.459228 -18.254642 30.888448 0.000000 0.000000 0.000000 14.305183 1.575509 -2.875874 17.665354 20.697739 -6.252930 0.440356 4.626870 3.859382 -32.332032 -13.647785 3.917505 -51.455691 49.849173 41.247246 0.000000 0.000000 0.000000 
-1.868596 152.781708 21.823795 0.000000 0.000000 0.000000 8.210295 -40.086298 5.604817 -81.980015 -18.466519 19.732329 78.428180 -2.465754 -1.045707 10.385893 5.234268 -3.384948 -11.549876 1.936285 -1.000426 0.000000 0.000000 0.000000 7.809396 -35.805009 4.844428 -114.312170 -47.529022 6.907926 114.319772 -5.419734 -26.786515 45.340230 8.503346 26.807818 8.967046 3.007435 -4.958935 0.000000 0.000000 0.000000 4.684197 -41.368202 2.113630 30.761632 -7.859042 -6.378388 11.230603 1.064496 -3.280499 0.122867 1.546031 0.922591 0.000000 0.000000 0.000000 11.204777 0.861214 -2.335828 -6.605528 18.624999 -15.706409 -27.762767 11.339306 2.829492 0.000000 0.000000 0.000000 12.905707 1.442374 -2.869146 12.262488 -12.523801 -0.451403 0.920739 -3.564504 -4.142558 -55.451137 4.052174 1.508419 47.429711 -18.433183 30.965008 0.000000 0.000000 0.000000 14.346718 1.502010 -2.872945 17.751991 20.374724 -6.664449 0.628061 4.758147 3.588379 -32.892299 -13.768570 3.594415 -51.649102 50.233931 41.413561 0.000000 0.000000 0.000000 
-1.855073 152.811844 21.826580 0.000000 0.000000 0.000000 8.172195 -39.555886 5.368403 -82.193253 -18.360628 19.763653 78.430236 -2.456955 -1.072581 10.577841 5.148960 -3.242190 -11.532202 1.932638 -0.985568 0.000000 0.000000 0.000000 7.849105 -35.467164 4.644241 -114.254851 -47.569242 7.284624 114.352571 -5.422921 -26.975602 45.538073 8.695077 27.059036 8.804104 3.007319 -4.915946 0.000000 0.000000 0.000000 4.813301 -41.104399 1.997553 30.660012 -7.930901 -6.442081 11.260583 1.011840 -3.303367 0.068700 1.627401 0.873412 0.000000 0.000000 0.000000 11.268109 0.856821 -2.365802 -6.749337 18.561556 -15.501336 -27.928927 11.266437 3.023023 0.000000 0.000000 0.000000 12.943025 1.440989 -2.826605 12.542893 -12.992329 0.987418 1.037363 -3.147504 -4.018947 -57.026544 2.551960 2.228680 47.385281 -18.628118 30.964598 0.000000 0.000000 0.000000 14.381243 1.445863 -2.897166 18.006108 19.933759 -7.578782 0.786601 4.778773 3.640434 -33.844868 -14.079981 2.801045 -52.768313 51.080301 42.630837 0.000000 0.000000 0.000000 
-1.806966 152.829041 21.849369 0.000000 0.000000 0.000000 8.108885 -38.904433 5.024861 -82.499178 -18.328386 19.725583 78.499289 -2.509385 -1.035757 10.848909 4.987920 -3.007386 -11.523076 1.920099 -0.935164 0.000000 0.000000 0.000000 7.856347 -34.977925 4.329154 -114.189787 -47.685072 7.726523 114.385923 -5.489788 -27.202924 45.789800 8.863267 27.353950 8.670082 2.992614 -4.831722 0.000000 0.000000 0.000000 5.021023 -40.751337 1.858042 30.546143 -7.986092 -6.540230 11.285831 0.964749 -3.331312 0.003041 1.622698 0.866556 0.000000 0.000000 0.000000 11.379053 0.873715 -2.403259 -6.859797 18.452431 -15.253213 -28.191292 11.152747 3.238103 0.000000 0.000000 0.000000 12.991039 1.461958 -2.796681 12.909085 -13.578420 2.782523 1.293783 -2.726747 -4.199017 -58.458018 0.593663 2.878012 47.254729 -18.608244 30.788461 0.000000 0.000000 0.000000 14.409257 1.413765 -2.940125 18.388312 19.474613 -8.846346 0.905821 4.714771 3.865234 -34.958486 -14.427332 1.765226 -54.466302 52.121474 44.528653 0.000000 0.000000 0.000000 
-1.752349 152.846329 21.899643 0.000000 0.000000 0.000000 8.036220 -38.199110 4.609198 -82.859996 -18.359991 19.641283 78.636173 -2.600505 -0.952426 11.156163 4.781900 -2.702416 -11.559734 1.905762 -0.865086 0.000000 0.000000 0.000000 7.816173 -34.443691 3.947622 -114.163579 -47.853982 8.154337 114.456786 -5.644008 -27.395375 46.022013 8.928222 27.614491 8.707256 2.966620 -4.716899 0.000000 0.000000 0.000000 5.257422 -40.359793 1.685914 30.441532 -8.015040 -6.649339 11.320396 0.921688 -3.355425 -0.046847 1.545204 0.878462 0.000000 0.000000 0.000000 11.523185 0.889448 -2.433803 -6.920299 18.329926 -15.023566 -28.491127 11.052534 3.425164 0.000000 0.000000 0.000000 13.061730 1.481541 -2.781327 13.339904 -14.227805 4.710314 1.547353 -2.503048 -4.507369 -59.611617 -1.705610 3.145538 47.090678 -18.321453 30.510861 0.000000 0.000000 0.000000 14.435999 1.398380 -2.981194 18.846367 19.132395 -10.258122 0.979662 4.642006 4.046803 -36.093230 -14.565606 0.723759 -56.282511 53.089578 46.603077 0.000000 0.000000 0.000000 
-1.706116 152.888458 21.934952 0.000000 0.000000 0.000000 7.953661 -37.543159 4.161535 -83.255949 -18.431996 19.543155 78.835573 -2.685648 -0.853715 11.483121 4.571993 -2.368373 -11.611544 1.899606 -0.806867 0.000000 0.000000 0.000000 7.745631 -33.991239 3.541223 -114.207900 -48.054438 8.511724 114.603648 -5.859440 -27.519730 46.257760 8.922770 27.844972 8.859507 2.939012 -4.591408 0.000000 0.000000 0.000000 5.486752 -40.043733 1.485360 30.369791 -8.013627 -6.746712 11.376639 0.873749 -3.370109 0.048002 1.509691 0.923257 0.000000 0.000000 0.000000 11.672570 0.884638 -2.449354 -6.933645 18.261122 -14.855060 -28.799356 11.009800 3.556497 0.000000 0.000000 0.000000 13.155915 1.477482 -2.783360 13.790756 -14.903529 6.501471 1.662913 -2.597584 -4.919618 -60.474529 -3.995461 2.965942 46.952185 -17.847600 30.228204 0.000000 0.000000 0.000000 14.476705 1.386441 -3.019254 19.345573 19.004800 -11.644047 0.965626 4.560615 4.165062 -37.011593 -14.304852 0.006617 -57.651072 53.790834 48.228652 0.000000 0.000000 0.000000 
-1.690443 152.948059 21.981346 0.000000 0.000000 0.000000 7.839985 -37.073608 3.712133 -83.670671 -18.524595 19.457822 79.081522 -2.751467 -0.744495 11.839625 4.359613 -2.074565 -11.632968 1.905785 -0.783230 0.000000 0.000000 0.000000 7.656566 -33.671658 3.135922 -114.325776 -48.266734 8.793974 114.817761 -6.060035 -27.616497 46.519025 8.952127 28.136423 8.921676 2.920391 -4.486780 0.000000 0.000000 0.000000 5.683534 -39.833516 1.265195 30.353695 -7.981496 -6.812166 11.465712 0.825708 -3.374962 0.210161 1.521995 0.932382 0.000000 0.000000 0.000000 11.785442 0.852945 -2.452136 -6.919493 18.260695 -14.801599 -29.078984 11.039262 3.619055 0.000000 0.000000 0.000000 13.259788 1.439099 -2.805069 14.219411 -15.569802 7.978739 1.815844 -2.867055 -5.053610 -61.267535 -6.047468 2.356550 46.887019 -17.338293 30.039630 0.000000 0.000000 0.000000 14.546334 1.374438 -3.050278 19.836616 19.073694 -12.842260 0.927376 4.474534 4.189679 -37.634838 -13.464793 -0.213626 -58.265045 54.206126 49.042298 0.000000 0.000000 0.000000 
-1.705885 153.005264 22.045891 0.000000 0.000000 0.000000 7.714228 -36.821519 3.304126 -84.087668 -18.635896 19.397763 79.355931 -2.792411 -0.630613 12.211379 4.138103 -1.870711 -11.611398 1.924952 -0.797189 0.000000 0.000000 0.000000 7.538179 -33.497341 2.760867 -114.471013 -48.488848 9.035668 115.046709 -6.186282 -27.732025 46.772101 9.053463 28.511225 8.791312 2.917243 -4.427015 0.000000 0.000000 0.000000 5.786947 -39.763087 1.022322 30.423510 -7.936465 -6.837474 11.579742 0.774329 -3.375807 0.320578 1.581155 0.919984 0.000000 0.000000 0.000000 11.842343 0.799092 -2.438984 -6.886220 18.333196 -14.864833 -29.303759 11.185817 3.641656 0.000000 0.000000 0.000000 13.357446 1.375240 -2.832727 14.584281 -16.189539 9.026377 1.874689 -3.135900 -4.906323 -62.054700 -7.742272 1.448544 46.942388 -16.982393 30.028414 0.000000 0.000000 0.000000 14.637898 1.349514 -3.065483 20.268537 19.306962 -13.757294 0.893955 4.411020 4.207804 -37.972563 -12.058189 0.163812 -57.888292 54.299932 48.772626 0.000000 0.000000 0.000000 
-1.740161 153.037689 22.130707 0.000000 0.000000 0.000000 7.573616 -36.779701 2.960673 -84.474250 -18.762364 19.375303 79.644602 -2.796648 -0.521626 12.571197 3.904306 -1.783763 -11.567423 1.953232 -0.834774 0.000000 0.000000 0.000000 7.389740 -33.478674 2.433829 -114.555591 -48.736726 9.263879 115.236015 -6.253646 -27.851360 46.955580 9.137199 28.870957 8.617532 2.925392 -4.406979 0.000000 0.000000 0.000000 5.755943 -39.861384 0.761487 30.582090 -7.895258 -6.837552 11.717028 0.721310 -3.380169 0.369499 1.654922 0.891213 0.000000 0.000000 0.000000 11.861128 0.736581 -2.421120 -6.833603 18.463811 -14.992870 -29.462448 11.380855 3.665564 0.000000 0.000000 0.000000 13.443761 1.297155 -2.860345 14.844742 -16.767010 9.570351 1.821608 -3.359440 -4.679065 -62.730049 -8.931234 0.427570 47.102774 -16.910138 30.181759 0.000000 0.000000 0.000000 14.724582 1.308272 -3.072034 20.602707 19.675765 -14.309311 0.853587 4.294042 4.221573 -38.092388 -10.243627 1.123773 -56.488595 54.048178 47.380076 0.000000 0.000000 0.000000 
-1.777099 153.057159 22.224796 0.000000 0.000000 0.000000 7.408320 -36.948499 2.686423 -84.781021 -18.905608 19.389717 79.942255 -2.774479 -0.416063 12.887317 3.658828 -1.799350 -11.565764 1.982451 -0.871868 0.000000 0.000000 0.000000 7.194765 -33.578463 2.163589 -114.551971 -49.009210 9.471596 115.357838 -6.290365 -27.935824 47.020426 9.112336 29.109484 8.553592 2.937716 -4.411000 0.000000 0.000000 0.000000 5.604831 -40.102670 0.503208 30.807555 -7.875146 -6.828509 11.862809 0.664590 -3.386954 0.317448 1.688369 0.877773 0.000000 0.000000 0.000000 11.877953 0.673595 -2.409981 -6.778926 18.618339 -15.129417 -29.554710 11.496513 3.721852 0.000000 0.000000 0.000000 13.526378 1.213398 -2.887145 14.983804 -17.306967 9.612990 1.764295 -3.520006 -4.364884 -63.205744 -9.742130 -0.680886 47.307161 -17.001763 30.380200 0.000000 0.000000 0.000000 14.796754 1.259327 -3.073392 20.797917 20.134006 -14.440348 0.829854 4.152866 4.240036 -38.099137 -8.127116 2.441015 -54.350049 53.466209 45.150849 0.000000 0.000000 0.000000 
